<?xml version="1.0" encoding="iso-8859-1"?>
<!-- Generator: Adobe Illustrator 19.0.0, SVG Export Plug-In . SVG Version: 6.00 Build 0)  -->
<svg version="1.1" id="Layer_1" xmlns="http://www.w3.org/2000/svg" xmlns:xlink="http://www.w3.org/1999/xlink" x="0px" y="0px"
	 viewBox="0 0 511.999 511.999" style="enable-background:new 0 0 511.999 511.999;" xml:space="preserve">
<path style="fill:#FFC60B;" d="M397.328,201.356c-0.04-10.831-1.521-21.662-2.64-32.419c-0.481-4.628-0.959-9.186-1.594-13.801
	c-0.811-5.9-2.239-10.795-4.048-16.466c-1.786-5.598-2.779-11.148-5.761-16.308c-3.102-5.369-7.421-8.391-12.351-11.937
	c-4.044-2.91-8.241-7.719-13.436-8.175c-2.731-3.584-5.491-7.148-8.103-10.77c-2.748-3.811-6.279-6.795-9.683-9.997
	c-3.929-3.696-7.849-7.571-12.422-10.481c-6.818-4.338-13.35-6.136-19.53-8.889c-7.32-3.261-15.687-3.991-23.479-5.435
	c-9.405-1.741-18.759-0.864-28.26-1.011c-9.404-0.146-19.05,1.058-27.925,4.302c-9.224,3.371-19.103,5.925-27.977,10.117
	c-4.606,2.176-8.608,5.712-12.504,8.946c-3.807,3.16-7.75,5.489-11.796,8.309c-16.19,11.288-29.592,25.729-40.454,42.085
	c-6.387,9.618-13.539,18.674-17.673,29.575c-1.42,3.744-2.817,7.485-4.08,11.288c-0.257,0.31-0.496,0.638-0.692,1.009
	c-2.312,4.361-2.919,9.394-4.454,14.051c-1.724,5.233-2.295,11.852-2.631,17.303c-0.637,10.319-0.399,20.932,0.441,31.238
	c1.675,20.534,6.106,41.381,13.977,60.428c3.75,9.076,6.972,18.2,13.288,25.897c5.548,6.76,12.528,14.26,20.006,18.83
	c3.767,2.301,7.211,4.488,11.301,6.259c4.247,1.837,9.716,3.661,13.62,6.15c-0.984-0.534,0.938,1.514,1.336,2.126
	c1.082,1.669,1.925,3.498,2.951,5.202c2.279,3.787,3.809,7.339,5.118,11.573c3.203,10.359,8.594,19.904,10.84,30.471
	c1.129,5.311,3.305,9.951,8.659,12.113c4.744,1.916,8.24,0.135,11.824-1.996c3.784,0.663,7.51,0.964,11.359,0.54
	c1.334-0.146,2.668-0.295,4.002-0.444c6.848,1.748,13.939,2.106,20.82,4.381c10.549,3.488,20.468,2.155,30.785-1.544
	c4.617-1.655,9.379-3.071,13.946-4.819c4.521-1.729,7.866-4.601,10.496-6.638c4.363-3.379,5.725-8.669,5.279-13.986
	c-0.179-2.126-1.018-4.346-1.283-6.214c-0.32-2.261,0.141-4.765,0.313-7.024c0.407-5.379,0.803-10.644,0.78-16.055
	c-0.011-2.694,0.032-5.398-0.04-8.092c-0.024-0.689-0.059-1.377-0.091-2.066c2.355-2.555,5.383-4.299,8.287-6.102
	c4.395-2.731,8.828-6.356,12.621-9.863c0.836-0.772,1.663-1.568,2.486-2.372c5.937-2.731,11.63-5.921,17.431-9.275
	c4.731-2.734,9.63-4.828,13.693-8.594c3.617-3.353,7.122-7.534,9.985-11.535c6.675-9.328,10.424-21.28,11.702-32.594
	c1.171-10.371,2.718-20.747,4.325-31.075C397.959,225.561,397.373,213.476,397.328,201.356z M134.464,185.685
	c-0.001,0.009-0.002,0.019-0.004,0.028c-0.387,1.454-0.772,2.907-1.151,4.363c0.425-2.174,0.895-4.333,1.418-6.475
	C134.63,184.297,134.543,184.991,134.464,185.685z M147.482,293.958c0.061-0.002,0.124-0.001,0.186-0.005
	c1.022,2.169,2.041,4.34,3.06,6.509C149.496,298.398,148.444,296.203,147.482,293.958z M185.518,321.822
	c-0.265-0.499-0.534-0.996-0.816-1.49c0.3-0.18,0.581-0.385,0.863-0.589c0.27,0.614,0.533,1.231,0.797,1.848
	C186.075,321.663,185.793,321.737,185.518,321.822z"/>
<path style="fill:#CC9809;" d="M246.654,379.617c6.695-6.933,6.376-19.78,2.947-28.202c-1.045-2.568-2.327-4.977-3.769-7.272
	c-0.732-2.478-1.694-4.828-2.956-6.978c0.205-3.08-0.824-6.234-3.437-8.876c-2.192-2.216-4.677-4.061-7.198-5.864
	c-0.374-0.726-0.75-1.451-1.125-2.161c-7.124-13.466-12.964-26.973-24.989-37.053c-3.525-2.956-7.421-5.283-11.298-7.645
	c-3.417-7.087-7.441-14.692-12.271-19.731c-0.845-2.679-1.628-5.423-2.368-8.24c-3.962-15.062-6.15-30.154-5.638-45.628
	c1.59-5.216,4.061-10.038,5.851-15.612c1.305-4.066-0.124-7.924-2.847-10.514c1.717-7.866,4.445-15.382,9.122-22.919
	c3.987-6.424,8.489-11.901,13.511-17.493c4.1-4.565,7.952-10.888,13.319-14.304c0.877-0.111,1.753-0.248,2.634-0.399
	c8.706-1.484,9.911-14.133,3.728-18.858c-0.494-2.073-1.936-3.927-4.479-4.686c-6.061-1.813-9.902-1.038-15.723,1.336
	c-2.229,0.91-4.372,2.191-6.447,3.617c-5.895,0.313-11.336,2.301-16.527,7.1c-5.998,5.544-10.241,11.708-13.691,18.554
	c-7.906,7.828-14.565,16.906-19.528,26.761c-6.293,12.496-9.73,26.018-11.772,39.801c-2.08,14.032-4.019,28.555-3.325,42.762
	c0.662,13.581,2.703,25.67,8.313,38.114c2.265,5.025,6.485,10.968,11.608,14.673c2.91,7.986,7.522,16.4,11.976,23.044
	c4.951,7.386,13.535,12.521,21.103,16.938c8.573,5.004,17.787,9.062,26.994,12.72c1.277,0.507,2.73,1.137,4.293,1.802
	c-0.998,3.97-0.654,8.667-0.288,12.393c0.002,0.024,0.007,0.045,0.009,0.068c-0.039,7.294-0.146,14.551,0.273,21.84
	c0.343,5.955-0.413,14.225,2.898,19.431c3.434,5.399,9.863,6.926,15.512,4.067c3.558-1.801,5.533-4.541,6.722-7.682
	c5.141-1.172,9.944-6.236,9.305-11.378C246.945,381.971,246.799,380.794,246.654,379.617z"/>
<path style="fill:#EBC356;" d="M336.143,138.364c-1.102-4.02-3.03-7.909-4.791-11.665c-1.655-3.531-3.14-7.425-6.157-10.475
	c-3.386-3.424-7.844-4.189-11.796-3.072c-1.202-2.056-2.494-4.046-4.009-5.825c-5.427-6.377-14.809-8.542-21.194-1.921
	c-1.608,1.667-2.601,3.567-3.166,5.585c-1.488,1.517-2.032,3.898-0.546,5.91c0.228,3.615,1.295,7.294,2.505,10.542
	c4.681,12.566,13.235,24.556,25.946,28.85c2.165,1.608,4.632,2.845,7.524,3.521c5.796,1.352,13.789-2.406,14.571-8.883
	C336.926,147.419,337.402,142.952,336.143,138.364z"/>
<g>
	<path style="fill:#EBDBB0;" d="M335.609,131.703c-3.265-7.401-6.044-15.904-12.316-21.378c-6.333-5.528-15.091-6.681-22.445-2.513
		c-0.012,0.007-0.022,0.014-0.034,0.021c-5.69-0.916-11.3-0.491-15.194,1.561c-4.5,2.371-5.995,7.125-5.351,11.675
		c-1.241,3.628-0.473,8.555,2.475,10.963c0.804,0.657,1.59,1.288,2.368,1.893c0.659,1.504,1.561,2.922,2.746,4.179
		c3.364,3.57,8.07,4.649,12.748,3.616c0.669-0.148,1.327-0.416,1.967-0.74c0.341,0.007,0.679,0.018,1.031,0.013
		c0.148-0.002,0.298-0.012,0.446-0.015c1.529,8.529,3.335,16.93,11.065,22.171c0.517,0.35,1.044,0.607,1.574,0.795
		c2.078,4.112,5.117,7.69,9.829,8.886c10,2.538,16.933-7.194,16.743-16.225C343.087,148.331,338.888,139.136,335.609,131.703z"/>
	<path style="fill:#EBDBB0;" d="M368.269,197.288c-1.229-4.269-3.709-6.546-7.12-9.061c-3.696-2.725-9.606-1.66-12.933,0.911
		c-3.765,2.909-5.262,7.61-4.173,12.239c0.069,0.297,0.142,0.584,0.217,0.872c-0.606,3.056-0.27,6.081,1.458,9.068
		c0.53,0.916,1.244,1.768,1.905,2.597c0.079,0.105,0.158,0.21,0.24,0.311c0.135,0.174,0.171,0.213,0.105,0.118
		c0.201,0.241,0.403,0.483,0.625,0.705c2.664,2.675,6.966,3.768,10.617,2.768c6.31-1.727,10.13-7.75,10.006-14.172
		C369.177,201.524,368.858,199.334,368.269,197.288z"/>
	<path style="fill:#EBDBB0;" d="M264.49,83.9c-3.011-0.06-4.734,0.935-7.319,1.946c-0.444,0.16-1.54,0.564-1.749,0.653
		c-1.165,0.492-2.208,1.143-3.352,1.676c-3.198,1.487-4.713,5.712-4.281,8.934c0.497,3.697,2.99,6.209,6.422,7.454
		c1.762,0.639,3.63,1.078,5.508,1.024c0.79-0.022,3.424-0.105,4.89-0.579c0.484,0.036,0.917,0.049,1.411,0.015
		c0.915-0.122,1.829-0.246,2.743-0.368c-0.259,0.019-0.47,0.034-0.657,0.048c0.878-0.106,1.787-0.126,2.628-0.394
		c3.713-1.179,6.549-4.555,6.516-8.559C277.19,88.997,270.986,84.03,264.49,83.9z"/>
	<path style="fill:#EBDBB0;" d="M367.609,244.047c-0.957-2.267-2.386-3.777-4.434-5.183c-0.061-0.042-0.124-0.085-0.185-0.127
		c-0.856-0.361-1.71-0.722-2.566-1.083c-1.428-0.447-2.856-0.512-4.283-0.192c-1.995,0.268-4.514,1.111-5.931,2.696
		c-1.887,1.405-3.029,3.507-3.343,5.849c-0.098,0.73-0.112,1.416-0.047,2.072c-0.004,1.264,0.187,2.564,0.596,3.733
		c0.106,0.474,0.238,0.946,0.438,1.42c1.581,3.747,5.196,6.28,9.314,6.308c2.023,0.014,4.008-0.631,5.717-1.682
		c2.674-1.643,4.186-3.798,5.272-6.754c0.129-0.96,0.258-1.921,0.387-2.881C368.598,246.73,368.287,245.338,367.609,244.047z"/>
	<path style="fill:#EBDBB0;" d="M353.084,284.442c-0.492-1.753-1.378-3.275-2.66-4.565c-0.976-0.969-2.083-1.71-3.323-2.228
		c-1.409-0.717-2.91-1.099-4.514-1.104c-1.371-0.052-2.651,0.234-3.838,0.858c-1.235,0.401-2.304,1.089-3.206,2.06
		c-1.235,1.243-2.088,2.708-2.561,4.396c-0.512,1.759-0.504,3.833-0.013,5.598c0.286,1.026,0.783,1.979,1.208,2.957
		c0.919,1.555,2.156,2.792,3.711,3.711c1.614,0.936,3.355,1.407,5.222,1.413c1.867-0.006,3.608-0.477,5.222-1.413
		c1.205-0.65,2.173-1.538,2.903-2.665c0.915-0.999,1.531-2.172,1.852-3.518C353.577,288.108,353.577,286.276,353.084,284.442z"/>
</g>
<path style="fill:#B0995E;" d="M325.159,432.091c0.651-0.517,1.324-1.081,1.717-1.504c2.513-2.707,4.175-6.98,2.819-10.666
	c-1.987-5.398-6.377-10.241-12.614-10.241c-5.608,0-9.284,3.399-13.435,6.582c-0.609,0.466-1.232,0.924-1.852,1.384
	c-4.155-0.477-8.054-1.299-12.285-0.831c-3.908,0.433-7.637,1.46-11.458,2.331c-4.099,0.933-6.497,1.534-10.568,1.144
	c-4.226-0.405-8.487,0.101-12.657,0.815c-4.075,0.697-8.038,1.812-12.189,2.002c-4.4,0.202-8.669-0.624-13.027-1.089
	c-4.399-0.47-8.677-0.537-13.094-0.339c-1.211,0.054-2.634,0.174-3.97,0.247c-2.054-1.476-4.518-2.697-6.805-4.22
	c-8.981-5.978-17.465,5.367-13.583,13.583c1.664,3.522,4.142,5.781,7.053,7.243c0.652,1.766,1.833,3.284,3.578,4.232
	c0.351,0.315,0.705,0.631,1.062,0.945c-2.74,2.77-4.401,7.117-4.157,11.08c-0.02,0.055-0.042,0.104-0.061,0.16
	c-0.983,2.87-1.69,6.075-1.467,9.094c0.547,7.383,7.784,11.976,14.568,8.36c2.154-1.148,3.371-2.599,4.28-4.306
	c0.496,0.106,0.889,0.184,0.971,0.201c3.295,0.702,6.678,0.906,10.036,0.951c5.892,0.079,11.648,0.803,17.522,1.096
	c4.991,0.248,10.088,0.045,15.032-0.81c0.261,0.109,0.536,0.199,0.831,0.253c9.412,1.734,17.862,4.7,27.694,2.849
	c6.712-1.264,15.244-4.507,21.689-9.146c0.174,0.038,0.34,0.091,0.52,0.117c14.44,2.027,18.041-11.987,18.285-23.277
	C329.679,436.419,327.812,433.645,325.159,432.091z"/>
<g>
	<path style="fill:#917A40;" d="M294.81,436.451c-10.086-2.381-19.73-4.316-30.183-2.331c-5.492,1.043-10.193,3.239-15.92,3.139
		c-6.128-0.107-12.033-1.337-18.092-1.949c-2.056-0.208-4.155-0.158-6.195-0.426c-0.459-0.06-2.398-0.619-3.205-0.722
		c-0.452-0.49-1.198-1.192-1.324-1.311c-3.747-3.581-8.2-6.969-12.863-9.268c-3.794-1.869-8.097-3.259-12.356-2.515
		c-4.844,0.846-9.433,5.775-6.383,10.85c1.606,2.672,4.621,4.115,7.145,5.751c3.637,2.359,7.303,5.098,10.334,8.209
		c4.422,4.539,7.529,7.214,14.033,7.655c5.36,0.363,10.754-0.093,16.131-0.082c5.511,0.011,11.248-0.644,16.689-1.481
		c5.252-0.807,9.766-2.658,14.863-3.939c4.92-1.236,10.371-1.854,15.406-2.573c4.996-0.713,8.105-2.806,12.417-5.224
		C296.824,439.381,296.546,436.862,294.81,436.451z"/>
	<path style="fill:#917A40;" d="M310.645,448.422c-3.079-0.697-5.585,0.177-8.535,0.929c-3.993,1.018-8.3,1.42-12.406,1.429
		c-10.567,0.024-20.832-0.065-31.244,2.141c-10.67,2.26-21.969,3.268-32.869,2.247c-4.748-0.445-9.37-1.535-14.051-2.256
		c-3.728-0.574-9.056-0.837-12.18,1.517c-1.462,1.102-1.66,2.678-0.531,4.116c2.667,3.397,7.234,5.566,10.908,7.74
		c4.878,2.886,10.255,4.617,15.803,5.636c11.327,2.08,23.214,1.084,34.485-1.017c10.504-1.959,21.004-4.835,31.415-7.291
		c4.455-1.051,9.169-2.58,13.208-4.78c3.512-1.914,4.126-4.879,6.82-7.297C312.491,450.615,311.977,448.723,310.645,448.422z"/>
</g>
<path style="fill:#4D4D4D;" d="M301.438,469.31c-3.558-0.28-6.035,1.764-8.544,3.386c-3.138,0.497-5.975,1.761-9.04,2.586
	c-2.767,0.745-5.618,1.116-8.426,1.68c-9.915-0.961-19.093-5.722-29.407-4.671c-4.402,0.448-7.7,2.83-9.023,6.347
	c-2.976-0.002-5.848-0.784-8.81-1.128c-0.446-0.217-0.89-0.434-1.328-0.652c-6.708-3.339-13.927,3.443-10.29,10.29
	c1.474,2.774,3.505,3.84,6.221,5.131c0.678,0.321,1.338,0.539,1.98,0.679c9.506,5.164,20.189,9.606,30.925,8.409
	c4.473-0.499,8.927-1.311,13.365-2.186c0.255,1.343,1.059,2.607,2.231,3.346c5.445,3.438,11.654,1.262,16.921-1.477
	c2.43-1.263,4.914-2.637,6.998-4.434c1.104-0.952,2.103-1.977,2.953-3.182c0.654-0.716,1.103-1.551,1.362-2.497
	c1.136,0.102,2.275,0.105,3.528-0.294c5.63-1.792,7.344-6.961,7.411-12.304C310.532,473.179,306.262,469.69,301.438,469.31z"/>
<path d="M406.865,174.238c-0.539-3.176-1.082-6.389-2.046-9.47c-0.531-1.699-1.501-3.311-1.979-4.999
	c-0.614-2.173-0.388-4.482-0.88-6.736c-0.683-3.13-2.346-5.752-3.517-8.686c-1.553-3.884-2.886-7.717-4.679-11.525
	c-3.471-7.37-5.821-14.863-10.481-21.652c-8.54-12.441-20.214-24.092-33.115-31.814c-6.403-3.833-12.277-8.196-19.024-11.507
	c-7.312-3.588-15.188-5.571-22.667-8.757c-6.736-2.87-13.566-6.109-20.619-8.132c-3.829-1.098-7.611-1.29-11.534-1.736
	c-3.926-0.446-7.47-1.264-11.422-0.796c-8.561,1.016-17.094,0.898-25.607,2.492c-8.48,1.587-16.593,3.403-24.77,6.211
	c-6.841,2.351-13.581,5.097-20.278,7.826c-7.403,3.017-13.169,8.227-20.16,11.961c-13.787,7.365-25.521,19.651-35.43,31.539
	c-10.56,12.668-19.422,25.896-25.62,41.2c-2.886,7.125-4.883,14.563-7.676,21.719c-1.384,3.545-3.077,6.99-3.901,10.728
	c-0.878,3.989-1.053,8.169-1.593,12.212c-1.089,8.185-1.149,15.867-1.298,24.102c-0.152,8.35,1.268,16.523,1.139,24.846
	c-0.279,18.129,5.802,35.589,12.864,52.105c3.508,8.203,7.278,15.992,12.627,23.172c5.167,6.937,10.723,13.614,16.06,20.423
	c5.478,6.992,11.229,12.897,18.688,17.746c3.622,2.354,7.195,4.99,11.046,6.931c3.489,1.759,5.216,3.551,8.05,6.168
	c5.752,5.311,7.491,12.505,8.783,20.165c0.787,4.668,1.626,9.407,2.126,14.112c0.167,1.576,0.54,3.058,0.988,4.512
	c-2.73,1.635-4.872,4.646-6.018,8.117c-3.162,9.572,3.7,17.797,6.747,26.377c2.025,5.702-2.021,7.842-4.11,12.629
	c-1.61,3.689-1.671,7.619-0.341,11.427c2.041,5.843,6.248,8.932,11.228,10.637c3.077,4.515,7.736,8.674,11.437,11.44
	c7.319,5.47,14.612,10.884,21.83,16.476c6.712,5.198,13.172,5.928,21.472,6.235c4.744,0.175,9.448,0,14.152-0.605
	c3.963-0.51,8.747-1.783,12.762-1.288c3.466,0.427,5.63,1.587,9.111-0.077c2.318-1.108,4.779-2.309,6.84-3.818
	c7.261-5.316,11.366-13.642,17.408-20.074c3.08-3.279,5.542-6.346,7.903-10.161c2.354-3.805,5.351-6.738,8.143-10.192
	c2.73-3.376,7.099-8.309,7.539-13.063c5.652-6.043,7.082-13.995,0.704-20.739c-3.091-3.268-4.214-4.886-3.722-9.711
	c0.48-4.705,3.536-8.647,3.555-13.498c0.018-4.478-1.764-9-5.11-11.994c-2.03-1.817-3.611-2.367-5.463-2.514
	c-0.208-1.13-0.453-2.258-0.699-3.388c0.891-1.367,1.325-3.085,0.965-5.074c-1.332-7.339-2.152-14.679-3.629-22.031
	c-0.51-2.535-1.761-6.605-0.665-9.149c1.262-2.933,4.998-3.913,7.779-4.722c13.957-4.064,26.391-11.355,36.918-21.39
	c22.207-21.17,33.743-53.07,39.453-82.559c1.481-7.649,2.338-15.342,2.402-23.118c0.068-8.165,1.614-16.221,1.048-24.421
	C410.018,190.264,408.219,182.217,406.865,174.238z M304.208,479.584c-5.087,5.565-8.694,13.026-15.158,17.23
	c-0.995,0.647-2.278,0.806-3.236,1.489c-0.275,0.133-0.543,0.279-0.815,0.419c-2.027-1.55-6.888-0.882-9.078-0.8
	c-7.651,0.282-15.029,1.491-22.739,1.328c-3.744-0.08-7.896,0.533-11.388-1.025c-3.139-1.401-5.789-3.917-8.526-5.943
	c-5.869-4.346-12.381-7.792-18.313-12.069c9.347,0.637,18.628,0.816,28.099,0.744c11.107-0.084,22.654,0.753,33.686-0.42
	c10.434-1.109,20.97-1.145,30.761-5.418c0.22-0.095,0.438-0.205,0.658-0.302C306.908,476.445,305.613,478.047,304.208,479.584z
	 M324.916,408.659c-0.332,1.611-1.069,3.215-1.812,4.97c-1.042,2.465-1.787,5.238-2.126,8.072
	c-5.214,3.582-10.809,6.725-16.091,10.116c-3.105,1.994-5.47,4.711-8.75,6.151c-2.644,1.161-5.171,2.479-7.908,3.712
	c-0.944,0.426-0.857,1.93,0,2.382c9.643,5.087,17.716-1.892,25.908-6.772c2.508-1.494,5.238-3.051,7.891-4.731
	c0.094,0.259,0.186,0.519,0.292,0.773c1.342,3.208,3.933,4.526,5.742,7.245c1.152,1.73,1.587,0.125,0.448,2.647
	c-0.609,1.347-2.879,2.68-3.983,3.464c-5.46,3.878-13.066,6.897-15.938,13.436c-0.077,0.174-0.126,0.347-0.179,0.519
	c-0.388,0.208-0.78,0.417-1.164,0.629c-7.439,4.093-14.805,5.582-23.217,6.02c-4.634,0.241-9.124,1.118-13.784,1.164
	c-4.531,0.045-9.062,0.027-13.593,0.067c-9.066,0.08-18.132,0.224-27.199,0.197c-4.486-0.013-9.121,0.255-13.586-0.184
	c-3.594-0.353-7.877-0.419-11.349-1.209c-3.206-0.729-6.476-3.295-5.396-6.801c0.937-3.037,4.008-5.337,4.96-8.603
	c0.379-1.299,0.541-2.527,0.551-3.708c2.52,1.75,5.344,3.095,8.415,3.877c6.659,1.699,13.699,0.723,20.452,0.306
	c7.192-0.445,14.593-0.67,21.592-2.535c1.094-0.292,1.095-1.925,0-2.216c-11.917-3.177-23.965-0.913-35.934-2.68
	c-10.303-1.522-16.049-10.853-23.005-17.62c-0.383-0.372-0.799-0.553-1.203-0.586c-0.882-2.207-1.408-4.48-0.969-6.5
	c0.204-0.942,0.48-1.704,0.815-2.351c0.985,0.618,2.238,0.849,3.377,0.633c0.662,0.493,1.357,0.911,2.088,1.23
	c3.837,1.675,7.783,3.212,12.011,3.321c4.826,0.124,9.699-0.605,14.518-0.218c4.699,0.378,9.049,1.52,13.806,1.548
	c4.972,0.029,9.949,0.032,14.921,0.139c9.891,0.214,19.616,1.332,29.369-0.942c8.463-1.973,17.336-3.056,25.647-5.605
	C316.213,416.276,321.746,413.499,324.916,408.659z M221.988,249.774c4.938,4.784,11.389,7.826,18.289,8.016
	c6.54,0.18,14.099-1.417,19.434-5.29c3.882-2.817,8.555-6.528,11.773-10.623c4.56,2.892,9.718,5.477,14.878,5.717
	c6.811,0.315,14.717-2.269,19.823-6.801c3.07-2.725,5.497-6.206,8.154-9.321c0.185-0.217,0.364-0.432,0.541-0.646
	c0.172,0.32,0.36,0.623,0.565,0.902c0,0.173-0.038,0.383-0.153,0.633c-0.467,1.012-0.536,2.414-0.842,3.517
	c-0.473,1.706-1.086,3.37-1.537,5.081c-1.044,3.967-1.695,8.049-3.065,11.93c-1.409,3.993-3.066,7.592-4.057,11.744
	c-3.923,16.426-8.993,32.414-12.396,48.914c-1.56,7.564-3.862,15.326-6.053,22.732c-2.533,8.568-4.024,16.923-5.821,25.649
	c-1.784,8.667-3.597,17.176-4.947,25.94c-1.211,7.863-3.209,16.12-3.21,24.094c-6.255,0.432-12.645-0.204-18.867-0.199
	c-6.682,0.006-13.413,0.501-20.044-0.228c0.291-1.043,0.529-2.087,0.633-3.122c0.299-2.962-0.996-6.007-1.573-8.901
	c-1.71-8.587-4.15-17.037-5.967-25.612c-1.819-8.587-3.53-16.851-6.013-25.291c-2.557-8.692-4.773-17.468-6.919-26.268
	c-4.067-16.679-9.816-32.815-15.26-49.076c-2.592-7.743-5.286-15.448-7.77-23.225c2.572,1.382,5.491,2.096,8.735,2.226
	c6.798,0.271,13.462-1.839,19.009-5.619C220.095,247.738,220.967,248.786,221.988,249.774z M224.387,214.144
	c1.687,0.234,0.337,7.453,0.074,8.627c-0.621,2.783-1.611,5.411-3.016,7.832c-0.267-1.611-0.448-3.221-0.549-4.765
	C220.774,223.935,221.081,213.686,224.387,214.144z M268.188,217.539c1.015,3.013,0.763,7.583-0.075,11.24
	c-0.556-0.835-1.032-1.794-1.421-2.972c-0.74-2.245-3.542-13.666-0.866-15.011C264.487,211.468,267.707,216.11,268.188,217.539z
	 M395.038,212.629c-0.724,7.906-0.603,15.821-1.723,23.689c-2.315,16.247-7.084,31.926-13.675,46.931
	c-6.98,15.888-15.839,29.229-29.394,40.244c-3.503,2.846-6.868,4.489-10.942,6.317c-3.348,1.502-6.221,3.754-9.671,5.03
	c-6.181,2.285-12.362,4.09-16.705,9.432c-5.094,6.266-4.46,13.881-2.85,21.296c1.031,4.744,1.776,9.443,2.51,14.159
	c-0.616,2.751-0.832,5.598-0.776,8.408c0.073,3.625,1.747,7.085,1.699,10.658c-0.077,5.637-8.85,6.472-13.213,7.46
	c-7.015,1.591-14.085,3.577-21.134,4.943c3.124-8.411,5.11-16.663,6.595-25.586c1.555-9.338,4.168-18.4,5.691-27.725
	c1.524-9.337,4.494-18.213,6.741-27.381c1.118-4.566,2.838-8.96,3.849-13.553c0.924-4.195,1.35-8.484,2.334-12.668
	c2.147-9.122,5.581-17.973,7.831-27.118c1.163-4.721,1.93-9.697,3.426-14.325c1.369-4.235,3.299-8.132,4.419-12.477
	c1.017-3.949,6.828-19.003,2.929-24.044c-0.08-0.674-0.237-1.396-0.348-2.018c-0.335-1.868-1.303-3.682-2.979-4.674
	c-0.476-0.281-0.988-0.471-1.517-0.583c-1.232-1.17-3.131-1.509-4.572,0.095c-2.264,2.52-5.18,4.29-7.486,6.833
	c-2.887,3.183-5.337,7.283-9.114,9.481c-7.749,4.512-14.206,2.047-21.438-1.398c2.836-9.335,1.131-21.333-5.419-28.27
	c-2.448-2.592-6.207-3.901-9.046-1.077c-3.963,3.942-3.248,12.512-2.6,17.455c0.731,5.59,2.152,10.404,5.736,14.227
	c-1.46,1.567-3.155,2.931-4.83,4.36c-3.565,3.043-5.991,5.588-10.62,7.015c-8.365,2.58-18.518,1.221-23.536-6.224
	c2.259-2.491,4.149-5.326,5.524-8.444c3.039-6.894,6.295-25.308-5.033-26.936c-12.715-1.827-12.401,19.139-11.248,26.437
	c0.271,1.72,0.59,3.401,0.996,5.031c-5.671,4.786-13.76,8.185-20.618,4.767c-7.314-3.647-7.571-14.271-13.452-19.203
	c-2.634-2.209-6.379,1.36-3.837,3.836c0.057,0.055,0.097,0.118,0.151,0.174c-0.739,0.346-1.412,0.891-1.925,1.635
	c-4.054,5.894,0.951,13.004,3.492,18.523c3.567,7.743,5.809,16.454,8.547,24.543c5.608,16.561,11.726,33.051,15.985,50.026
	c4.32,17.219,9.844,34.171,13.341,51.554c1.696,8.429,3.608,17.167,6.483,25.273c1.496,4.217,2.992,8.147,4.326,12.219
	c-6.479-0.058-13.281,1.178-19.244-0.63c-1.185-0.359-2.547-0.82-3.658-1.316c-0.064-0.021-0.111-0.036-0.165-0.054
	c-0.42-0.674-0.84-1.349-1.261-2.023c-0.616-1.064-1.056-2.08-1.384-3.103c0.423-10.267-0.656-20.825-3.488-30.383
	c-1.75-5.905-4.532-10.191-8.767-14.595c-2.547-2.648-4.724-5.448-7.968-7.331c-3.133-1.82-6.19-3.293-9.251-5.306
	c-6.302-4.143-11.813-7.562-16.893-13.301c-4.885-5.518-9.38-11.394-14.127-17.034c-10.424-12.384-17.52-26.535-22.721-41.848
	c-2.255-6.638-4.334-13.512-5.406-20.452c-1.217-7.882-0.647-16.205-1.449-24.204c-0.746-7.447-0.541-15.436-0.4-22.927
	c0.137-7.254,1.013-15.648,2.899-22.654c1.889-7.02,5.202-13.897,7.626-20.773c2.766-7.845,5.847-15.692,10.376-22.676
	c8.557-13.196,17.902-25.964,29.871-36.333c5.591-4.845,10.854-9.873,17.348-13.489c2.887-1.607,5.991-2.881,8.726-4.74
	c3.277-2.226,5.836-4.883,9.49-6.55c14.439-6.594,29.573-11.162,45.141-14.035c7.163-1.322,14.399-0.902,21.621-1.79
	c7.239-0.891,16.031,0.703,22.886,3.192c7.007,2.546,13.741,5.762,20.661,8.52c6.975,2.78,13.861,4.802,20.487,8.433
	c6.273,3.436,12.495,7.509,18.459,11.465c6.177,4.096,11.107,10.141,15.986,15.63c4.587,5.161,8.947,10.251,11.905,16.569
	c3.497,7.47,6.29,15.397,9.352,23.035c1.307,3.257,2.295,5.123,2.703,8.614c0.433,3.711,1.701,6.461,2.911,9.909
	c2.352,6.698,2.841,14.333,4.042,21.316C395.547,197.659,395.736,205.002,395.038,212.629z"/>
<path d="M80.667,280.974c-6.329-4.027-14.937-2.527-21.672-0.178c-4.14,1.444-13.738,4.281-13.686,10.232
	c0.051,5.851,8.757,7.336,12.885,6.59c4.088-0.738,8.077-2.531,12.006-3.851c3.641-1.224,7.303-2.22,10.467-4.455
	C83.642,287.209,83.895,283.028,80.667,280.974z"/>
<path d="M84.564,182.726c-1.171-0.168-3.269-2.212-4.75-2.938c-2.963-1.451-6.197-2.467-9.287-3.617
	c-5.303-1.972-10.443-4.446-15.782-6.293c-2.322-0.803-5.277,0.098-6.939,1.834c0.029-0.077,0.059-0.154,0.088-0.231
	c-2.359,1.165-3.085,4.555-1.828,6.738c1.431,6.474,9.979,10.677,15.545,12.791c6.36,2.417,16.101,5.314,22.952,3.509
	C89.996,193.087,90.771,183.615,84.564,182.726z"/>
<path d="M115.859,101.185c1.267,0.227,4.704-0.071,1.494,0.328c0.678-0.085,1.063,0.394,1.84,0c0.241-0.099,0.472-0.22,0.69-0.363
	c1.445-0.917,2.448-2.851,1.861-4.575c-3.498-10.29-9.707-18.239-15.562-27.125c-4.307-6.537-14.3-3.968-14.641,3.966
	c-0.208,4.852,2.608,8.52,5.858,11.831c3.052,3.11,5.677,6.523,8.687,9.677C109.134,98.118,111.453,100.396,115.859,101.185z"/>
<path d="M218.512,44.229c1.126,5.751,10.038,5.47,11.351,0c1.528-6.368,1.972-12.804,0.348-19.29
	c-0.862-3.443-2.211-6.683-2.812-10.21c-0.699-4.099-0.564-7.393-2.705-11.113c-2.621-4.552-10.309-5.085-12.784,0
	c-3.348,6.875-1.294,14.716,1.25,21.659C215.397,31.389,217.257,37.826,218.512,44.229z"/>
<path d="M354.297,56.791c0.315-0.057,0.63-0.112,0.944-0.168c1.51-0.268,2.716-1.309,3.478-2.648
	c3.525-2.464,7.39-4.487,10.77-7.194c4.031-3.229,8.508-7.135,11.891-11.021c3.87-4.446,1.796-14.166-5.491-13.256
	c-8.527,1.064-12.465,6.885-18.195,12.482c-4.542,4.436-10.974,8.763-11.475,15.654C345.894,55.12,350.538,57.46,354.297,56.791z"/>
<path d="M443.15,118.039c5.116-1.327,13.568-5.678,13.224-11.812c-0.118-2.109-1.463-4.354-3.68-4.833
	c-4.499-0.972-9.898,0.497-14.292,1.44c-6.343,1.362-13.136,1.859-18.975,4.991c-3.253,1.746-3.208,6.818,0,8.576
	C426.324,120.178,435.672,119.977,443.15,118.039z"/>
<path d="M466.673,218.271c-0.657-6.733-6.13-10.075-11.454-13.389c-2.592-1.615-5.389-2.482-8.353-3.071
	c-2.442-0.485-5.827-0.385-8.065-1.394c-4.332-1.952-11.003,2.535-7.423,7.423c3.692,5.043,8.283,6.847,13.163,10.425
	c5.488,4.023,9.909,7.543,17.143,6.56C464.366,224.46,466.932,220.93,466.673,218.271z"/>
<path d="M448.736,312.562c-1.638-1.229-2.995-2.939-4.574-4.293c-4.385-3.756-9.889-5.024-14.5-8.277
	c-5.968-4.21-11.185,4.528-7.244,9.388c3.522,4.342,7.633,8.025,11.194,12.292c3.663,4.388,8.596,7.682,14.484,7.901
	c6.14,0.23,8.816-6.466,6.507-11.34C453.307,315.498,451.052,314.299,448.736,312.562z"/>
<path d="M141.466,213.692c1.453-3.547,4.193-7.795,7.73-9.521c3.115-1.52,0.912-6.383-2.321-5.504
	c-4.122,1.122-7.244,4.088-9.718,7.444c-2.205,2.989-5.533,8.626-2.161,11.97C138.237,221.294,140.507,216.033,141.466,213.692z"/>
<path d="M140.3,234.167c2.251-3.519,4.096-6.882,7.263-9.67c3.133-2.758,4.871-6.397,7.344-9.684
	c1.994-2.648-2.379-5.977-4.586-3.538c-1.72,1.902-3.262,3.999-5.046,5.837c-1.334,1.374-2.992,2.331-4.395,3.621
	c-3.086,2.837-5.61,6.811-6.678,10.863C133.223,235.309,138.273,237.339,140.3,234.167z"/>
<path d="M146.725,230.41c-0.553,1.494-1.935,2.378-2.891,3.584c-0.995,1.255-1.647,2.711-2.674,3.95
	c-2.042,2.465-4.432,4.372-5.947,7.256c-1.237,2.355,1.462,5.821,3.983,3.983c3.151-2.298,6.024-5.087,7.999-8.495
	c1.636-2.82,3.509-6.436,3.864-9.692C151.348,228.362,147.527,228.244,146.725,230.41z"/>
<path d="M147.802,246.861c-0.474,0.767-0.973,1.643-1.835,2.711c-0.883,1.094-2.194,1.875-3.184,2.897
	c-1.64,1.693-3.801,5.795-0.221,6.764c2.912,0.789,6.113-2.919,7.064-5.271c1.022-2.528,2.111-5.023,0.091-7.346
	C149.184,246.004,148.188,246.235,147.802,246.861z"/>
<path d="M164.662,280.045c0.605-3.698-4.941-5.364-5.719-1.577c-1.104,5.375-7.589,8.78-5.818,14.914
	c0.783,2.712,4.628,2.651,5.44,0c0.763-2.49,1.609-4.475,3.032-6.679C162.936,284.629,164.256,282.524,164.662,280.045z"/>
<path d="M163.917,291.49c-0.544,2.858-7.853,14.997-1.209,15.673c2.987,0.304,3.554-3.753,4.197-5.828
	c0.957-3.083,1.873-5.925,2.295-9.131C169.594,289.218,164.482,288.521,163.917,291.49z"/>
<path d="M341.481,130.181c-1.071-0.905-2.408,0.453-1.528,1.528c2.412,2.945,1.28,7.772,1.003,11.262
	c-0.315,3.982-0.846,7.705-1.989,11.558c-1.415,4.771-2.877,9.413-4.759,14.013c-1.056,2.58-2.333,10.169-6.21,6.164
	c-2.1-2.168-3.173-7.542-4.549-10.189c-2.228-4.283-4.725-8.588-7.712-12.384c-4.483-5.696-10.498-9.911-16.944-13.12
	c-7.695-3.83-15.583-7.126-23.251-11.054c-3.733-1.913-10.116-5.08-6.116-10.068c1.953-2.434,6.68-4.173,9.414-5.57
	c9.34-4.774,19.096-8.17,29.617-6.406c5.071,0.851,9.167,1.142,13.498,4.25c3.866,2.774,8.768,5.807,9.794,10.709
	c0.524,2.501,4.28,1.43,3.813-1.051c-1.343-7.131-9.83-13.196-15.951-16.401c-3.69-1.933-7.934-1.912-11.945-2.707
	c-4.079-0.81-8.047-0.613-12.153,0.064c-9.259,1.527-18.37,6.093-26.095,11.345c-4.568,3.106-8.195,7.806-4.634,13.149
	c1.764,2.646,4.825,4.413,7.585,5.81c4.461,2.258,8.85,4.805,13.42,6.833c9.022,4.004,18.026,7.21,24.855,14.742
	c3.697,4.079,6.553,9.171,9.019,14.074c1.92,3.817,3.003,8.417,5.5,11.936c3.157,4.448,8.059,4.208,10.737-0.557
	c4.529-8.059,8.721-19.544,9.647-28.716C346.141,143.527,346.449,134.381,341.481,130.181z"/>
<path d="M363.449,205.494c-1.684-3.203-5.106-4.732-6.655-7.908c-0.391-0.802-1.708-0.412-1.67,0.453
	c0.118,2.752,1.804,4.691,2.899,7.186c1.372,3.127,2.369,6.299,2.623,9.714c0.303,4.084-2.986,8.996-7.808,6.828
	c-5.395-2.426-5.285-10.76-3.86-15.16c0.499-1.541-1.84-2.131-2.394-0.66c-2.123,5.633-2.372,12.203,1.39,17.228
	c3.273,4.373,7.936,5.315,12.616,2.607c4.985-2.884,5.93-6.723,5.322-12.258C365.599,210.686,364.784,208.032,363.449,205.494z"/>
<g>
</g>
<g>
</g>
<g>
</g>
<g>
</g>
<g>
</g>
<g>
</g>
<g>
</g>
<g>
</g>
<g>
</g>
<g>
</g>
<g>
</g>
<g>
</g>
<g>
</g>
<g>
</g>
<g>
</g>
</svg>